<svg width="620" height="520" viewBox="0 0 620 520" fill="none" xmlns="http://www.w3.org/2000/svg">
<rect width="620" height="520" rx="40" fill="url(#bg)"/>
<rect x="36" y="34" width="548" height="452" rx="32" fill="#F8FAFC" fill-opacity="0.96"/>
<rect x="72" y="70" width="476" height="54" rx="27" fill="#E0F2FE"/>
<circle cx="104" cy="97" r="8" fill="#38BDF8"/>
<circle cx="128" cy="97" r="8" fill="#7DD3FC"/>
<circle cx="152" cy="97" r="8" fill="#BAE6FD"/>
<rect x="184" y="84" width="190" height="26" rx="13" fill="#0EA5E9" fill-opacity="0.18"/>
<text x="279" y="102" text-anchor="middle" fill="#0F172A" font-family="Arial, sans-serif" font-size="14" font-weight="700">Fullstack Rendering Workflow</text>
<rect x="88" y="160" width="190" height="208" rx="28" fill="#0F172A"/>
<text x="183" y="196" text-anchor="middle" fill="#BAE6FD" font-family="Arial, sans-serif" font-size="18" font-weight="700">Server</text>
<rect x="118" y="224" width="130" height="20" rx="10" fill="#38BDF8"/>
<rect x="118" y="258" width="108" height="20" rx="10" fill="#7DD3FC"/>
<rect x="118" y="292" width="122" height="20" rx="10" fill="#BAE6FD"/>
<rect x="118" y="330" width="96" height="48" rx="16" fill="#E0F2FE"/>
<text x="166" y="359" text-anchor="middle" fill="#0369A1" font-family="Arial, sans-serif" font-size="15" font-weight="700">Data</text>
<rect x="342" y="160" width="190" height="208" rx="28" fill="url(#clientCard)"/>
<text x="437" y="196" text-anchor="middle" fill="#0F172A" font-family="Arial, sans-serif" font-size="18" font-weight="700">Client UI</text>
<rect x="372" y="224" width="128" height="20" rx="10" fill="#CBD5E1"/>
<rect x="372" y="258" width="104" height="20" rx="10" fill="#CBD5E1"/>
<rect x="372" y="292" width="136" height="20" rx="10" fill="#38BDF8"/>
<rect x="372" y="330" width="110" height="48" rx="16" fill="#0EA5E9"/>
<text x="427" y="359" text-anchor="middle" fill="white" font-family="Arial, sans-serif" font-size="15" font-weight="700">Actions</text>
<path d="M278 230C312 230 308 204 342 204" stroke="#38BDF8" stroke-width="8" stroke-linecap="round"/>
<path d="M278 270C328 270 292 236 342 236" stroke="#7DD3FC" stroke-width="8" stroke-linecap="round"/>
<path d="M278 308C318 308 302 270 342 270" stroke="#BAE6FD" stroke-width="8" stroke-linecap="round"/>
<circle cx="310" cy="338" r="34" fill="#EEF2FF"/>
<circle cx="310" cy="338" r="21" fill="#6366F1" fill-opacity="0.18"/>
<path d="M298 338H322" stroke="#4F46E5" stroke-width="8" stroke-linecap="round"/>
<path d="M310 326V350" stroke="#4F46E5" stroke-width="8" stroke-linecap="round"/>
<rect x="86" y="410" width="126" height="42" rx="21" fill="white"/>
<text x="149" y="436" text-anchor="middle" fill="#0284C7" font-family="Arial, sans-serif" font-size="15" font-weight="700">SSR</text>
<rect x="230" y="410" width="126" height="42" rx="21" fill="white"/>
<text x="293" y="436" text-anchor="middle" fill="#0EA5E9" font-family="Arial, sans-serif" font-size="15" font-weight="700">SSG</text>
<rect x="374" y="410" width="126" height="42" rx="21" fill="white"/>
<text x="437" y="436" text-anchor="middle" fill="#4F46E5" font-family="Arial, sans-serif" font-size="15" font-weight="700">ISR</text>
<path d="M149 389V410" stroke="#BAE6FD" stroke-width="6" stroke-linecap="round"/>
<path d="M293 389V410" stroke="#7DD3FC" stroke-width="6" stroke-linecap="round"/>
<path d="M437 389V410" stroke="#818CF8" stroke-width="6" stroke-linecap="round"/>
<rect x="510" y="390" width="52" height="52" rx="18" fill="white"/>
<path d="M527 405H545C548.314 405 551 407.686 551 411V423C551 426.314 548.314 429 545 429H527C523.686 429 521 426.314 521 423V411C521 407.686 523.686 405 527 405Z" fill="#8B5CF6" fill-opacity="0.14"/>
<path d="M531 417H541" stroke="#7C3AED" stroke-width="4" stroke-linecap="round"/>
<path d="M536 412V422" stroke="#7C3AED" stroke-width="4" stroke-linecap="round"/>
<circle cx="116" cy="146" r="14" fill="#38BDF8" fill-opacity="0.18"/>
<circle cx="504" cy="144" r="14" fill="#6366F1" fill-opacity="0.16"/>
<circle cx="524" cy="168" r="8" fill="#A5B4FC" fill-opacity="0.4"/>
<defs>
<linearGradient id="bg" x1="42" y1="24" x2="578" y2="486" gradientUnits="userSpaceOnUse">
<stop stop-color="#0F172A"/>
<stop offset="0.52" stop-color="#1D4ED8"/>
<stop offset="1" stop-color="#4338CA"/>
</linearGradient>
<linearGradient id="clientCard" x1="342" y1="160" x2="532" y2="368" gradientUnits="userSpaceOnUse">
<stop stop-color="#E0F2FE"/>
<stop offset="1" stop-color="#DBEAFE"/>
</linearGradient>
</defs>
</svg>
